PathFileType	4	(X/Y/Z)	pose_F01_0-91.trc
DataRate	CameraRate	NumFrames	NumMarkers	Units	OrigDataRate	OrigDataStartFrame	OrigNumFrames
30	30	6	21	m	30	68	91
Frame#	Time	CHip			RHip			RKnee			RAnkle			RBigToe			RSmallToe			RHeel			LHip			LKnee			LAnkle			LBigToe			LSmallToe			LHeel			Neck			Nose			RShoulder			RElbow			RWrist			LShoulder			LElbow			LWrist			
		X1	Y1	Z1	X2	Y2	Z2	X3	Y3	Z3	X4	Y4	Z4	X5	Y5	Z5	X6	Y6	Z6	X7	Y7	Z7	X8	Y8	Z8	X9	Y9	Z9	X10	Y10	Z10	X11	Y11	Z11	X12	Y12	Z12	X13	Y13	Z13	X14	Y14	Z14	X15	Y15	Z15	X16	Y16	Z16	X17	Y17	Z17	X18	Y18	Z18	X19	Y19	Z19	X20	Y20	Z20	X21	Y21	Z21	
68	2.2666666666666666	-0.2113910096637213	1.8310688601795995	-0.5737803305956382	-0.22342909128834507	1.8306112400707517	-0.5127057671369574	-0.2140815247189686	1.70021858856137	-0.510687668158115	-0.20983885419819392	1.5733778910555913	-0.5008767535603231	-0.24300510899915864	1.5379189649162261	-0.4621965100536432	-0.23470621329951485	1.5456866706802732	-0.44026964283504866	-0.20597833058254292	1.5668196574268847	-0.5088099052720689	-0.2030020395292436	1.831616839917905	-0.6417773530130058	-0.20056128168687254	1.6985931424405638	-0.6336784030705797	-0.1915576380094882	1.561893521359804	-0.6609140036203542	-0.2219412656582209	1.5231622229982424	-0.639061762920752	-0.21161598057046502	1.529615763508876	-0.6710073401832926	-0.183137127355888	1.5501339042214841	-0.6596665908974415	-0.20133303915806094	1.9950473012837502	-0.6197470423447853	-0.22487048989982505	2.0580245918871585	-0.6023116946999318	-0.21491551855772686	1.9933480564938668	-0.5259514656413732	-0.19991831762240317	1.9202739154285335	-0.48492337448784184	-0.23590103730496198	1.8854437330695182	-0.47339851097666685	-0.18442598143306516	1.9965214157173556	-0.7099322846343936	-1.289210314264783	1.8373193696459484	0.38120801033212875	-0.21186901608971465	1.864626356365311	-0.6849591520694842
69	2.3	-0.21245274581918908	1.8309167731378364	-0.5681209191243625	-0.2255694388469894	1.8291076939778825	-0.5014291917173106	-0.21459641788958217	1.700058769184736	-0.5014755924307277	-0.208851670077327	1.5733695787773472	-0.49767723758500254	-0.24278204881702592	1.5366598014313406	-0.46219038728661666	-0.23442406427792803	1.5442609968171854	-0.4402575062823634	-0.20565960017440849	1.5652305437801333	-0.508979772244954	-0.20314227765011902	1.832622513749513	-0.6333667915932627	-0.20303691846546718	1.697248511080256	-0.6308090241164673	-0.19107357799585978	1.5617394596161722	-0.661814780732148	-0.22407305658928423	1.5230190931768006	-0.6368819477522362	-0.21496212199483516	1.5281956854831678	-0.6713729964904411	-0.18392323101508984	1.5498027260228469	-0.6629519278381735	-0.2029115182100236	1.9933387605789854	-0.6058606333223666	-0.2250505195451413	2.0575865657014822	-0.5939692997643994	-0.21815302843343487	1.9917539958163304	-0.5098835157961406	-0.2086740617628506	1.9215809560232844	-0.47036134500425447	-0.24001797145091106	1.8899872227911096	-0.47868182855261193	-0.18295428424885707	1.995080310133955	-0.7037521089197537	-0.16541599235296325	1.9200057984613441	-0.7587759044510044	-0.21096355058912641	1.8737010265574452	-0.674253060450644
70	2.3333333333333335	-0.2131368854136523	1.831814918322762	-0.5628458432169098	-0.22518213223069342	1.8300047532170471	-0.49286648827605584	-0.21383103075453236	1.6987177713071042	-0.49763562891612106	-0.2111537399932402	1.5748956935340785	-0.49525347794943825	-0.24301842781968802	1.5380377870668391	-0.4617999068412798	-0.23463929657297203	1.54541469212171	-0.43984654917338584	-0.20601965568556427	1.566795431820855	-0.5087530638169232	-0.2012416473357442	1.8337990318107127	-0.6270817941592524	-0.20525704105936798	1.7012380610768654	-0.6289366985917278	-0.18152078501601457	1.567876836485502	-0.6725941588778096	-0.20995484385479912	1.5281937706611308	-0.6522039274833781	-0.20045857917018595	1.5350992429287205	-0.6873591778682806	-0.1719536216969292	1.5579977883124132	-0.6766754271247442	-0.20121876502258487	1.9931051134388995	-0.59961144426294	-0.2242148365301457	2.056300975346206	-0.5910054045442394	-0.21926101720444774	1.9914536453844356	-0.5043378069361264	-0.22595991488120673	1.9153209710306995	-0.43741025040207704	-0.23869740224312774	1.8911989169721122	-0.49880505124646546	-0.1820249740183348	1.9950949935673947	-0.7006621142868564	-0.16475170600873865	1.917308269550428	-0.7551502638486929	-0.23184835139694823	1.879379580261477	-0.6409218317542488
71	2.3666666666666667	-0.21120941351042824	1.8306697462568953	-0.5647960525697187	-0.22239782670133101	1.8286881139896412	-0.4916536993182737	-0.21135730330089417	1.701360078940499	-0.4917862599996798	-0.2108835364624099	1.5734815215618763	-0.4955029822224357	-0.24057858162926601	1.5391085873523558	-0.4646532824859703	-0.2322728562935802	1.5460376894598336	-0.4429449578088099	-0.20608992552724187	1.5670615890724575	-0.5087431077322344	-0.2009924364559095	1.8324917738588937	-0.6269299052829934	-0.20067031055853476	1.7054294215048322	-0.6341546561819523	-0.1697362440099878	1.5742587960289407	-0.6856063738639444	-0.19686288444697644	1.533431973630028	-0.6656870425056237	-0.18714491657281088	1.5404959072562443	-0.7010422391950252	-0.1605726092018406	1.5665099697103613	-0.6894224910320242	-0.2012471017511609	1.9906335281885514	-0.5990149922151743	-0.22131335341772085	2.05619654767646	-0.5900760777468487	-0.2212528838878206	1.9901777102280598	-0.5020318726140471	-0.22576284626401866	1.9136928460500342	-0.42833305608440064	-0.23548245947118707	1.895206204005912	-0.5072502499318681	-0.17822522861117368	1.994791942718691	-0.6967578355626881	-0.16166959084157542	1.9174094674692976	-0.7542381894872573	-0.21530267331572348	1.8895458749270255	-0.6429602256633314
72	2.4	-0.20822947028792205	1.8321425687450164	-0.5642335083686476	-0.21841578721064642	1.830282326402832	-0.4962590670536306	-0.2112737907830265	1.704498137433806	-0.5010592597979688	-0.20914099294303493	1.5751657544714348	-0.49736049654690073	-0.2406394613537521	1.53890931178288	-0.46455934490450546	-0.23459278106253906	1.5454451122453647	-0.4399329899896015	-0.2060867759312389	1.5678406651330008	-0.5084694814265841	-0.19588710866156686	1.83396964570769	-0.6285867636102513	-0.19487778436331413	1.7059469681546928	-0.6444550239167587	-0.15516942713743706	1.580769720321196	-0.7048598548323599	-0.18377774798413565	1.5399188402134978	-0.6921313594492629	-0.1727760516697975	1.547013490154288	-0.724383717254491	-0.14759509201149132	1.572882120436373	-0.7073059054071623	-0.2002945894419002	1.9918150388442397	-0.5964664164269378	-0.2211594813742868	2.0549894611196877	-0.5895992391158242	-0.21837727720210018	1.9901281338627055	-0.5011084740191429	-0.22397792425880314	1.913988898819882	-0.43084888364366625	-0.23063504441487231	1.8997850425837812	-0.5180466955161924	-0.17728362489765034	1.994510614698379	-0.6937146370757317	-0.16061688849090916	1.9173248832110013	-0.7510333758500397	-0.20714597925869538	1.8953496295743464	-0.6354185825048159
73	2.433333333333333	-0.2048061981313404	1.8336207525580146	-0.5723037177881806	-0.21534052746992657	1.8305938842457112	-0.5040803389356437	-0.2071019518551714	1.7032502486174317	-0.5055956444384264	-0.2091523031791358	1.5752401622244452	-0.49742204776323584	-0.2402961933739762	1.537369574587574	-0.4650688339162953	-0.2351271451785478	1.5454228048659884	-0.4441032059969196	-0.20612454918586692	1.5651387656779214	-0.508150811693655	-0.18904483329579305	1.8370658358479397	-0.6445530961347378	-0.1824197721910306	1.7080208629123816	-0.6619895399724596	-0.14589641658160266	1.5873588199219169	-0.72306433869014	-0.16649107057994664	1.5469554978966311	-0.7143992963946763	-0.15746280552902425	1.5537225507030055	-0.7445124904412944	-0.13625611759163922	1.5777617421967791	-0.7272596679029694	-0.19604931953327379	1.9930182685330986	-0.600911900990394	-0.2190911374723314	2.0562838196086695	-0.5923970803963476	-0.2143007781112078	1.989010734953567	-0.5051091290096181	-0.22116120355149732	1.9130541906890588	-0.438332951284335	-0.22326586272854365	1.9011306810508428	-0.5305098281146404	-0.17509262214946236	1.9947121002959192	-0.6960179986556426	-0.15827941130095888	1.918617355555629	-0.7537393391320298	-0.2012365574783427	1.8998703558976497	-0.6547070990434083
